<svg viewBox="0 0 246 65" fill="none" xmlns="http://www.w3.org/2000/svg"><g clip-path="url(#a)" fill="#CECCBD"><path d="M71.63 51.98a7.41 7.41 0 0 0-3.03-.57h-5.51v13.4h2.48v-3.87h3.03c1.16 0 2.17-.2 3.03-.58a4.4 4.4 0 0 0 1.98-1.65c.46-.71.69-1.56.69-2.53 0-.97-.23-1.83-.69-2.55a4.38 4.38 0 0 0-1.98-1.64Zm-.68 6.17c-.56.45-1.39.69-2.47.69h-2.91v-5.32h2.9c1.1 0 1.91.23 2.48.69.56.45.84 1.1.84 1.97 0 .86-.28 1.5-.84 1.97Zm12.19-6.75-6.03 13.4h2.57l1.32-3.1h6.7l1.33 3.1h2.6l-6.05-13.4h-2.45.01Zm-1.3 8.35 2.5-5.86 2.53 5.86h-5.03Zm24-.98c.5-.72.74-1.6.74-2.6s-.23-1.83-.7-2.54a4.39 4.39 0 0 0-1.97-1.65 7.41 7.41 0 0 0-3.03-.57h-5.51v13.4h2.48v-3.91h3.03l.52-.02 2.73 3.91h2.68l-3.08-4.4c.92-.35 1.63-.9 2.12-1.62Zm-5.08.08h-2.9v-5.34h2.9c1.09 0 1.9.23 2.47.69.56.46.84 1.11.84 1.97 0 .86-.28 1.52-.84 1.98-.56.47-1.38.7-2.47.7Zm8.9-5.33h4.44v11.28h2.49v-11.28h4.44v-2.11h-11.37v2.1Zm24.7 6.96-7.38-9.07h-2.04v13.4h2.46v-9.07l7.39 9.06h2.05v-13.4h-2.48v9.08Zm10.59-1.45h6.48v-2.05h-6.48v-3.48h7.3v-2.1h-9.78v13.4h10.04v-2.08h-7.56v-3.7Zm22.83-.26c.5-.72.74-1.6.74-2.6s-.23-1.83-.69-2.54a4.39 4.39 0 0 0-1.98-1.65 7.41 7.41 0 0 0-3.03-.57h-5.51v13.4h2.48v-3.91h3.03l.52-.02 2.73 3.91h2.68l-3.08-4.4c.92-.35 1.63-.9 2.12-1.62Zm-5.08.08h-2.9v-5.34h2.9c1.09 0 1.9.23 2.47.69.56.46.84 1.11.84 1.97 0 .86-.28 1.52-.84 1.98-.56.47-1.38.7-2.47.7Zm17.88-1.04c-.64-.24-1.46-.48-2.45-.72a20.4 20.4 0 0 1-1.72-.47 3.06 3.06 0 0 1-1.05-.58c-.27-.24-.4-.55-.4-.93 0-.55.23-1 .71-1.32.48-.33 1.2-.5 2.2-.5a7.6 7.6 0 0 1 3.7 1.05l.77-1.93a6.69 6.69 0 0 0-2.05-.88 9.8 9.8 0 0 0-2.4-.3c-1.18 0-2.17.17-2.98.53a4 4 0 0 0-1.82 1.44 3.6 3.6 0 0 0-.6 2.02c0 .88.22 1.58.67 2.1.46.52 1 .9 1.63 1.14.63.24 1.45.48 2.48.72.72.18 1.3.34 1.72.48.42.15.77.34 1.04.58.28.25.41.57.41.95 0 .53-.24.94-.74 1.26-.49.32-1.23.48-2.22.48a7.37 7.37 0 0 1-4.42-1.47l-.87 1.94c.56.48 1.33.87 2.3 1.16.95.3 1.95.44 2.99.44 1.17 0 2.17-.18 2.98-.53a4.1 4.1 0 0 0 1.83-1.44c.4-.6.6-1.27.6-2 0-.87-.22-1.56-.67-2.07a4.2 4.2 0 0 0-1.64-1.14Zm-106.31-23.48v-31.3l2.86-3.03h-13.66l2.85 3.04v31.29h7.95Zm43.75 0v-31.33l2.83-3h-10.67v20.84l-17.07-20.84h-9.42l2.85 3.04v31.29h7.85v-20.85l17.11 20.85h6.52Zm-62.52-34.33h-6.06l-8 24.32-7.84-24.32h-7.35l-8.1 24.13-7.74-24.13h-10.41l3.34 3.55 10.1 30.78h8.5l7.8-23.24 7.54 23.24h8.54l10.07-30.79 3.32-3.54h-3.71Zm136.81 0h-3.71l2.86 3.04v31.29h7.94v-31.3l2.86-3.03h-9.95Zm50.84 0h-7.85v20.84l-17.06-20.84h-9.43l2.86 3.04v31.29h7.84v-20.85l17.12 20.85h6.52v-31.33l2.82-3h-2.82Zm-62.51 0h-6.06l-8 24.32-7.84-24.32h-7.35l-8.1 24.13-7.75-24.13h-10.4l3.34 3.55 10.1 30.78h8.49l7.8-23.24 7.55 23.24h8.54l10.06-30.79 3.33-3.54h-3.71Z"/></g><defs><clipPath id="a"><path fill="#fff" d="M0 0h245.97v65h-245.97z"/></clipPath></defs></svg>