<svg width="24" height="23" viewBox="0 0 24 23" fill="none" xmlns="http://www.w3.org/2000/svg">
<path d="M5.03673 2.51961C5.03639 3.18752 4.77075 3.82794 4.29822 4.29999C3.8257 4.77204 3.18502 5.03705 2.5171 5.03671C1.84919 5.03638 1.20877 4.77073 0.736721 4.29821C0.264673 3.82569 -0.00033364 3.185 3.15251e-07 2.51709C0.000334271 1.84918 0.265981 1.20875 0.738502 0.736706C1.21102 0.264657 1.85171 -0.000348899 2.51962 -1.49435e-05C3.18753 0.000319012 3.82796 0.265966 4.30001 0.738487C4.77205 1.21101 5.03706 1.8517 5.03673 2.51961ZM5.11228 6.90156H0.0755511V22.6665H5.11228V6.90156ZM13.0703 6.90156H8.05876V22.6665H13.0199V14.3937C13.0199 9.78509 19.0262 9.35696 19.0262 14.3937V22.6665H24V12.6812C24 4.91205 15.1102 5.20166 13.0199 9.01698L13.0703 6.90156Z" fill="currentColor"/>
</svg>
