<svg width="24" height="24" viewBox="0 0 24 24" fill="none" xmlns="http://www.w3.org/2000/svg">
<path fill-rule="evenodd" clip-rule="evenodd" d="M20.3509 20.7031V20.7007L20.3727 20.6487L24 2.36089V2.30283C24 1.84684 23.8307 1.44892 23.4654 1.21064C23.1449 1.0014 22.776 0.986882 22.5171 1.00623C22.2762 1.02821 22.0385 1.07689 21.8084 1.15138C21.7101 1.18271 21.6133 1.21823 21.5181 1.25781L21.5024 1.26386L1.27935 9.19704L1.2733 9.19946C1.21135 9.21917 1.15108 9.24384 1.09309 9.27324C0.949343 9.33801 0.811365 9.41489 0.680645 9.50304C0.4206 9.68205 -0.0740894 10.103 0.0093668 10.7706C0.0783089 11.3246 0.459305 11.6753 0.71693 11.858C0.868654 11.9651 1.03221 12.0544 1.20436 12.1241L1.24307 12.141L1.25516 12.1446L1.26363 12.1482L4.80266 13.3396C4.78975 13.5622 4.81273 13.7859 4.8716 14.0109L6.64353 20.7346C6.74033 21.1011 6.9495 21.428 7.24166 21.6696C7.53382 21.9111 7.8943 22.055 8.27247 22.0812C8.65064 22.1074 9.0275 22.0144 9.35013 21.8154C9.67276 21.6164 9.92495 21.3213 10.0713 20.9716L12.8386 18.0132L17.5908 21.6562L17.6585 21.6852C18.0903 21.8739 18.4931 21.9332 18.862 21.8836C19.2309 21.8328 19.5236 21.678 19.7437 21.5026C19.9984 21.2962 20.2013 21.0332 20.3364 20.7346L20.3461 20.714L20.3497 20.7067L20.3509 20.7031ZM6.62539 13.5489C6.60576 13.4742 6.61043 13.3953 6.6387 13.3236C6.66698 13.2518 6.71739 13.1909 6.78262 13.1497L18.7822 5.5298C18.7822 5.5298 19.4885 5.10043 19.4631 5.5298C19.4631 5.5298 19.5889 5.60479 19.2103 5.95676C18.8523 6.29179 10.6579 14.2032 9.82817 15.0039C9.78314 15.0495 9.751 15.1063 9.73504 15.1684L8.39732 20.2725L6.62539 13.5489Z" fill="currentColor"/>
</svg>
